<?xml version="1.0" encoding="UTF-8"?>
<svg id="Layer_1" data-name="Layer 1" xmlns="http://www.w3.org/2000/svg" viewBox="0 0 502.3535081 119.8786909">
  <defs>
    <style>
      .cls-1 {
        fill: #0172fb;
      }
    </style>
  </defs>
  <g>
    <path class="cls-1" d="M89.9370172,64.0957845v-.0132986c.7929416-1.3125173,2.6457902-4.5993722,3.145418-8.1236125,.0725827-.5111242,.2068111-1.4576828,.1401941-2.7068766-.0656228-1.2303645-.3266224-2.4922355-.8386787-4.0794859-1.9681855-6.1051535-4.548353-11.9306645-7.6604625-17.3308084-.4926678-.8647787-1.011187-1.7158859-1.5302034-2.5539432-.4787478-.7712538-.9704214-1.5294577-1.476512-2.2743629-.5050964-.7579553-1.0101927-1.4894999-1.5421348-2.2211066-.4389765-.625094-.8908786-1.2501881-1.3567008-1.8619836-.0531942-.2662817-.1063884-.5588499-.1864283-.8647165-.1730054-.7183082-.3857823-1.4232557-.6522504-2.1016061-.3057424-.8378087-.6910275-1.6359703-1.1563525-2.3938635-.4389765-.7848631-.9579928-1.5164698-1.5431291-2.2081188-.6119819-.7579553-1.3035066-1.4496042-2.0621454-2.0746982-1.3298551-1.1040283-2.8063671-1.9817948-4.4016961-2.6204981L54.3446261,1.8486229l-1.3169294-.8114602-1.4899349-.3854716c-1.609249-.4390386-3.2846178-.6516911-4.9475581-.6516911-1.675866,0-3.3388063,.2126525-4.9480553,.6516911l-1.5028606,.3854716-1.3169294,.8114602-14.4315378,8.8048836c-4.6482786,3.0064668-5.5147972,3.6304423-5.6500199,3.7609421-.0238628,.0228685-.1814569,.1814569-.1685312,.1961847,.01392,.0159085,.2614967-.1846261,.0989313,.0213771,2.9520298,1.3034444,6.3037618,3.098811,9.5630253,5.4929851,.070097,.0615213,.2142682,.1699605,.4250565,.2126525,.1113598,.02262,.2092968,.0201343,.2808853,.0120557l15.429302-9.416617c.731296-.1997268,1.4760149-.2925681,2.2207337-.2925681,.7442217,0,1.4894377,.0928413,2.207808,.2925681l15.4417306,9.416617c.5190163,.1464705,1.0246099,.3458245,1.4899349,.6384547,.2396225,.1331098,.465325,.2928788,.678599,.4789343,.4916735,.3990808,.8908786,.8777044,1.2100439,1.4099571-4.7611298,3.524551-9.2970543,8.4058028-11.9174903,15.1093911-.8506101,2.1548624-3.4178519,8.7119802-1.9015685,16.6390973,1.5689804,8.1668017,6.4240701,12.9947972,10.7069493,17.2509549,.997267,.9975156,1.941837,1.9288492,2.81979,2.8864691,2.6199388,2.8195414,4.8545925,6.1047806,6.6771155,9.8156978,1.7017174,3.3917519,3.0723381,7.1426269,4.1232965,11.2523142,2.7795214-3.0325668,5.55954-6.0648228,8.3395586-9.0974517-1.6525003-4.7854277-3.6743772-8.563894-5.3736089-11.2922098-1.1523754-1.8496172-3.0713439-4.7546048-5.9458194-7.8875322-1.0370384-1.1303768-2.1014196-2.1945095-3.1389552-3.2186843-3.6445487-3.6310637-6.8098524-6.7701432-7.7544224-11.7179499-.9440728-4.9078489,.7183703-9.1507081,1.3437751-10.7467206,1.5426319-3.9372411,4.1098737-7.009455,6.969435-9.4036291,.4787478,.718246,.9579928,1.4628406,1.4496663,2.2344051,.5055935,.7981616,.997267,1.6226097,1.4894377,2.4740898,3.1921494,5.5196444,5.307489,10.7866163,6.7571553,15.2957572,.5050964,1.5293955,.3057424,3.1786644-.5055935,4.5487259-.664679,1.1040283-1.3169294,2.2344051-1.9821055,3.3384334-.7178732,1.223591-.9440728,2.6601452-.664679,4.0435052l2.2172537,3.9138754c3.365652,4.3889568,6.1322477,9.416617,8.2465931,15.0294755,2.8734813-3.723905,2.8769613-7.4650857,1.89262-12.1469214l-1.5297062-7.1023584Z"/>
    <path class="cls-1" d="M53.14708,107.4028205c-1.0506806,1.1703064-2.5536501,1.8353705-4.1223308,1.8353705h-4.8682232c-.3684023-.0006991-.9465213-.0360887-1.609925-.2393392-1.3337981-.4091223-2.1866459-1.2352312-2.527086-1.5960313-.239077-.2529707-14.510996-15.8812324-14.7507721-16.1338536-.0531282-.053303-1.7420465-1.9152376-3.8301256-4.202897-.6256548-.6783461-1.2764755-1.3966257-1.9286944-2.1149053,1.8350209-3.6843725,4.0433376-6.9296507,6.6375329-9.7495536,.8780138-.9575314,1.8217389-1.8885861,2.8192912-2.872769,4.2824146-4.2562,9.1373557-9.0844896,10.7067355-17.2642265,1.5169506-7.927203-1.0506806-14.4846067-1.9021303-16.6391834-2.6864706-6.8763477-7.4078921-11.8374579-12.3159614-15.3889224-1.1352663-.8215651-2.3697985-1.6038083-2.3697985-1.6038083-.3124779-.1971337-1.1611313-.7280664-2.3194665-1.3693625-1.1506455-.6374513-2.6822763-1.4261608-4.5676292-2.2406479-.200629,.3926071-.402656,.7855637-.6067803,1.1787825-1.4512394,2.8033003-2.9311401,5.540103-4.4348087,8.2116313,.0538273,.0132821,.0929744,.0265641,.1461026,.0532156,2.7801441,1.1303729,6.1586798,2.8462048,9.2310291,5.3332699,3.0059391,2.4473936,5.7322559,5.6131543,7.3421809,9.7229021,.6249557,1.5959439,2.288009,5.839124,1.3435849,10.7336491-.9444241,4.9478281-4.1104469,8.0869372-7.7546237,11.7180068-1.0373985,1.0242038-2.1013611,2.0879917-3.1387596,3.2186267-2.2614448,2.4607631-4.2963957,5.1737978-6.0915704,8.1401529-.1069555-.5802161-.188046-1.1913655-.2362808-1.8317004-.3075845-4.107738,.9073742-7.5667525,2.0587187-9.899501,.2922052-1.3700616,.0657112-2.7933388-.6396359-4.0035788-.6648019-1.117353-1.3296037-2.2610079-1.9951047-3.3783609-.8241865-1.3700616-1.0101353-3.0193085-.5180002-4.5487547,1.245018-3.8677872,4.6361367-10.7685145,6.7696544-15.2957733,.1929393-.4088601,.3446344-.7364551,.4222296-.9050148-1.3386915-1.0929734-2.9940551-2.2798824-4.9828683-3.3972354-1.4666186-.823837-2.8619336-1.4681041-4.1272242-1.9746573-.1810554,.3234006-.3614117,.646539-.5424671,.9699396-.1782592,.6345677-5.5484042,10.7895736-7.6616493,17.3441809-1.4358602,4.4555182-.8773148,9.2970899,1.5302327,13.2872992,.2922052,.4919604,.6116736,1.0371364,.930443,1.5827492l-1.5295336,7.0627334c-1.0241164,4.8811557,.226494,9.9088509,3.3254075,13.7126745,.12583,.1549282,.2111148,.2491259,.5585454,.6384125,3.4561309,3.8713699,6.5613358,7.2085739,7.6476682,8.379492,.2726317,.2929043,2.3942654,2.6159534,6.6375329,7.262139,3.1156908,3.410867,4.6724876,5.1172617,4.7479856,5.2007115,5.9189037,6.4772744,7.1960783,7.8739001,7.5414117,8.2464093,1.383431,1.5160768,3.7644144,3.5245509,7.2890527,4.5886009,1.5162516,.4656584,3.0989134,.7049976,4.6955564,.7049976h4.8682232c4.5746198,0,8.9374258-1.9418017,12.0097751-5.32025l13.6294869-15.0522398c-.9577062-4.216179-2.2481628-8.0599362-3.8846519-11.5182516l-17.6322792,19.414871Z"/>
  </g>
  <g>
    <path class="cls-1" d="M150.820305,38.0106345c-2.2529297-1.2089844-4.8603516-1.8125-7.8203125-1.8125h-19.0390625v47.4824219h8.9472656v-18.4179687h10.0917969c2.9599609,0,5.5673828-.5986328,7.8203125-1.796875,2.2539062-1.1962891,4.0009766-2.8896484,5.2421875-5.078125,1.2402344-2.1875,1.8613281-4.7294922,1.8613281-7.625s-.6210938-5.4423828-1.8613281-7.6416016c-1.2412109-2.1982422-2.9882812-3.9023438-5.2421875-5.1103516Zm-2.8574219,15.8212891c-.4570312,.8935547-1.09375,1.5839844-1.9101562,2.0742188s-1.7578125,.734375-2.8242188,.734375h-10.3203125v-11.8212891h10.3203125c1.0878906,0,2.0410156,.2451172,2.8574219,.734375,.8164062,.4902344,1.4472656,1.1875,1.8935547,2.0908203s.6699219,1.9423828,.6699219,3.1181641c0,1.1542969-.2294922,2.1777344-.6865234,3.0693359Z"/>
    <path class="cls-1" d="M176.2441331,36.1981345l-18.1572266,47.4824219h9.6337891l2.666748-7.609375h17.3950195l2.666748,7.609375h9.6337891l-18.1572266-47.4824219h-5.6816406Zm-2.8354492,31.2519531l5.6762695-16.1972656,5.6762695,16.1972656h-11.3525391Z"/>
    <path class="cls-1" d="M231.8085862,38.190322c-2.796875-1.328125-6.1777344-1.9921875-10.1396484-1.9921875h-15.7080078v47.4824219h15.6757812c4.0703125,0,7.5107422-.7070312,10.3193359-2.1230469,2.8085938-1.4150391,4.9150391-3.3955078,6.3193359-5.9433594,1.4042969-2.546875,2.1064453-5.5292969,2.1064453-8.9472656v-13.4550781c0-3.5917969-.7294922-6.6621094-2.1884766-9.2089844s-3.5869141-4.484375-6.3847656-5.8125Zm-.7011719,28.7373047c0,2.5908203-.8066406,4.59375-2.4169922,6.0087891-1.6113281,1.4160156-3.8857422,2.1230469-6.8251953,2.1230469h-6.9560547v-30.2402344h6.9560547c2.9394531,0,5.2138672,.7080078,6.8251953,2.1230469,1.6103516,1.4150391,2.4169922,3.4179688,2.4169922,6.0087891v13.9765625Z"/>
    <polygon class="cls-1" points="252.4316331 36.1981345 249.1992112 36.1981345 249.1992112 83.6805564 252.4316331 83.6805564 258.1464769 83.6805564 281.0068284 83.6805564 281.0068284 75.0594627 258.1464769 75.0594627 258.1464769 64.4129783 277.414055 64.4129783 277.414055 55.7918845 258.1464769 55.7918845 258.1464769 44.8192283 281.0068284 44.8192283 281.0068284 36.1981345 258.1464769 36.1981345 252.4316331 36.1981345"/>
    <polygon class="cls-1" points="298.1191331 36.1981345 289.1708909 36.1981345 289.1708909 83.6805564 293.1542894 83.6805564 298.1191331 83.6805564 320.9785081 83.6805564 320.9785081 75.0594627 298.1191331 75.0594627 298.1191331 36.1981345"/>
    <polygon class="cls-1" points="373.6855394 44.2313377 373.6855394 36.1981345 344.0996019 36.1981345 344.0996019 44.8192283 363.0400316 44.8192283 343.5117112 75.6473533 343.5117112 83.6805564 374.3388597 83.6805564 374.3388597 75.0594627 354.1572191 75.0594627 373.6855394 44.2313377"/>
    <path class="cls-1" d="M406.6523362,37.8797752c-2.6230469-1.4482422-5.6542969-2.171875-9.0947266-2.171875s-6.4716797,.7236328-9.0947266,2.171875-4.6533203,3.4941406-6.0898438,6.1396484c-1.4375,2.6445312-2.15625,5.7089844-2.15625,9.1923828v13.4550781c0,3.4833984,.71875,6.546875,2.15625,9.1923828,1.4365234,2.6455078,3.4667969,4.6914062,6.0898438,6.1396484s5.6542969,2.171875,9.0947266,2.171875,6.4716797-.7236328,9.0947266-2.171875c2.6240234-1.4482422,4.6542969-3.4941406,6.0908203-6.1396484s2.1552734-5.7089844,2.1552734-9.1923828v-13.4550781c0-3.4833984-.71875-6.5478516-2.1552734-9.1923828-1.4365234-2.6455078-3.4667969-4.6914062-6.0908203-6.1396484Zm-1.0283203,29.015625c0,1.6542969-.3320312,3.1132812-.9960938,4.3759766s-1.6054688,2.2363281-2.8251953,2.9228516c-1.21875,.6855469-2.6337891,1.0283203-4.2451172,1.0283203s-3.0263672-.3427734-4.2451172-1.0283203c-1.2197266-.6865234-2.1611328-1.6601562-2.8242188-2.9228516-.6650391-1.2626953-.9960938-2.7216797-.9960938-4.3759766v-13.9121094c0-1.6542969,.3310547-3.1132812,.9960938-4.3759766,.6630859-1.2626953,1.6044922-2.2373047,2.8242188-2.9228516,1.21875-.6855469,2.6337891-1.0283203,4.2451172-1.0283203s3.0263672,.3427734,4.2451172,1.0283203c1.2197266,.6855469,2.1611328,1.6601562,2.8251953,2.9228516s.9960938,2.7216797,.9960938,4.3759766v13.9121094Z"/>
    <polygon class="cls-1" points="451.539055 70.9622947 434.6562425 36.1981345 423.7158128 36.1981345 423.7158128 83.6483298 432.2714769 83.6483298 432.2714769 49.4172507 449.0898362 83.6483298 460.0956956 83.6483298 460.0956956 36.1981345 451.539055 36.1981345 451.539055 70.9622947"/>
    <polygon class="cls-1" points="502.3535081 44.8192283 502.3535081 36.1981345 479.4941331 36.1981345 473.7783128 36.1981345 470.5458909 36.1981345 470.5458909 83.6805564 473.7783128 83.6805564 479.4941331 83.6805564 502.3535081 83.6805564 502.3535081 75.0594627 479.4941331 75.0594627 479.4941331 64.4129783 498.7607347 64.4129783 498.7607347 55.7918845 479.4941331 55.7918845 479.4941331 44.8192283 502.3535081 44.8192283"/>
  </g>
</svg>