<svg id="Layer_1" data-name="Layer 1" xmlns="http://www.w3.org/2000/svg" viewBox="0 0 326.7388544 141.3100567" height="100px" width="100px" transform="rotate(0) scale(1, 1)">
  <defs>
    <style>.cls-1 { fill: #ffffff; }</style>
  </defs>
  <g>
    <path class="cls-1" d="M106.015547,75.5545365v-.015676c.9347001-1.5471631,3.1187925-5.421627,3.7077415-9.5759149,.0855588-.6025007,.2437839-1.7182806,.1652573-3.1907996-.0773545-1.4503235-.3850144-2.937786-.9886139-4.8087978-2.3200488-7.196605-5.3614868-14.0635743-9.0299651-20.4291313-.5807447-1.0193799-1.1919624-2.0226442-1.8037661-3.0105255-.5643362-.9091351-1.1439089-1.8028871-1.7404761-2.6809632-.5953952-.8934591-1.1907904-1.7557858-1.8178306-2.6181859-.5174547-.7368455-1.0501459-1.473691-1.5992456-2.1948605-.062704-.3138864-.125408-.6587585-.2197571-1.0193066-.2039346-.846724-.4547507-1.6776988-.7688568-2.4773216-.3604016-.9875883-.8145663-1.9284417-1.3630799-2.8218275-.5174547-.9251773-1.1292584-1.7875774-1.8190026-2.6028762-.7213893-.8934591-1.5365415-1.7087578-2.4308064-2.4456033-1.5676005-1.3014015-3.3080766-2.3360911-5.1886113-3.0889788L64.0601105,2.1791112l-1.552364-.9565293-1.7562986-.4543844c-1.8969431-.5175279-3.8718268-.7681975-5.83206-.7681975-1.9754697,0-3.9357029,.2506696-5.832646,.7681975l-1.7715351,.4543844-1.552364,.9565293L28.7513003,12.5580918c-5.4792766,3.5439492-6.5007076,4.2794762-6.6601047,4.4333062-.0281289,.0269569-.2138969,.2138969-.1986604,.2312577,.0164085,.0187526,.3082459-.2176328,.1166178,.0251988,3.4797802,1.5364683,7.4307195,3.6528023,11.2726594,6.474996,.0826287,.0725198,.2525741,.2003452,.5010462,.2506696,.1312682,.0266639,.246714,.0237338,.3311007,.014211l18.1876823-11.1000768c.8620338-.2354331,1.7398901-.3448721,2.6177464-.3448721,.8772703,0,1.7557126,.109439,2.6025099,.3448721l18.2023328,11.1000768c.6118037,.1726558,1.2077849,.4076494,1.7562986,.7525948,.2824611,.1569066,.5485137,.3452384,.7999158,.5645559,.5795727,.4704267,1.0501459,1.0346164,1.42637,1.6620228-5.6123029,4.1546542-10.9591393,9.9085539-14.0480448,17.8105791-1.0026783,2.5400989-4.0288799,10.2694683-2.2415223,19.6137593,1.8494756,9.6268253,7.5725361,15.3179478,12.6210888,20.335002,1.1755539,1.1758469,2.2889898,2.27368,3.3238991,3.4024989,3.0883196,3.3236061,5.7224745,7.1961655,7.8708197,11.5705035,2.0059427,3.9981139,3.6215967,8.4195532,4.8604407,13.2639516,3.2764316-3.5747152,6.5534493-7.1490642,9.8304669-10.7238527-1.9479268-5.6409446-4.3312656-10.0949079-6.3342782-13.3109796-1.3583918-2.1802833-3.6204247-5.6046114-7.0087859-9.2976292-1.2224354-1.3324605-2.4771019-2.5868339-3.7001233-3.7941061-4.2961045-4.2802087-8.0272868-7.9804785-9.1407227-13.8128315-1.1128499-5.7852517,.8467973-10.78663,1.5840091-12.6679704,1.8184166-4.6411231,4.8446182-8.2625733,8.2153988-11.0847671,.5643362,.8466508,1.1292584,1.7243606,1.7088311,2.6338619,.5959812,.9408533,1.1755539,1.9126924,1.7557126,2.9163963,3.7628273,6.5064212,6.2563377,12.7149984,7.9651688,18.030263,.5953952,1.8028139,.3604016,3.7469315-.5959812,5.3619263-.7835073,1.3014015-1.552364,2.6338619-2.3364573,3.9352634-.8462113,1.442339-1.1128499,3.1357138-.7835073,4.7663846l2.6136443,4.6135802c3.9673479,5.1735945,7.228543,11.1000768,9.7208814,17.7163766,3.3871892-4.3896478,3.3912913-8.7996597,2.2309739-14.3184926l-1.8031801-8.3720856Z"/>
    <path class="cls-1" d="M62.6484726,126.6038071c-1.2385164,1.3795285-3.01018,2.1634896-4.8593023,2.1634896h-5.7385419c-.4342636-.000824-1.115736-.0425405-1.8977401-.2821271-1.5722484-.4822633-2.5775645-1.4560602-2.9788669-1.8813625-.2818181-.2981957-17.1052057-18.7204067-17.3878478-19.0181903-.0626262-.0628323-2.0534817-2.257635-4.514858-4.9542718-.7375065-.7996177-1.504678-1.6463081-2.2734976-2.4929984,2.1630776-4.3430478,4.766187-8.1685021,7.8241607-11.4925343,1.0349811-1.1287145,2.147421-2.2262189,3.3233112-3.3863495,5.0480051-5.017104,10.7708904-10.7085732,12.6208368-20.3506461,1.7881442-9.3443923-1.2385164-17.0740986-2.2421844-19.6138607-3.1667456-8.1056698-8.7322413-13.9537046-14.5177529-18.1400838-1.338224-.9684407-2.7934602-1.8905298-2.7934602-1.8905298-.3683412-.2323763-1.3687131-.8582268-2.7341301-1.6141709-1.3563527-.751412-3.1618014-1.6811233-5.3842092-2.6412208-.2364965,.4627956-.474641,.9260032-.7152577,1.3895199-1.7106854,3.3044616-3.455156,6.5305373-5.2276436,9.6796693,.0634503,.0156566,.1095959,.0313131,.1722222,.0627293,3.2771656,1.3324558,7.2597005,3.3550364,10.8813104,6.2867276,3.5433271,2.8849275,6.7570424,6.6166484,8.6547825,11.4611182,.7366824,1.8812595,2.6970488,6.883016,1.5837848,12.652562-1.1132639,5.8323783-4.8452938,9.532683-9.14096,13.8128986-1.2228599,1.2073063-2.4770329,2.4612733-3.6998927,3.7940381-2.6657356,2.9006871-5.0644857,6.0987458-7.1805936,9.5954123-.1260765-.6839445-.221664-1.4043524-.278522-2.1591635-.362573-4.8421007,1.0695904-8.919502,2.4267671-11.6692887,.3444444-1.6149949,.0774588-3.2927191-.7539871-4.7193203-.7836521-1.3171083-1.5673042-2.6652206-2.3517804-3.9823289-.9715309-1.6149949-1.1907227-3.5590867-.6106059-5.3619604,1.4675967-4.5592526,5.4649641-12.6936604,7.9799023-18.0302819,.2274322-.4819543,.4062466-.8681151,.4977139-1.0668093-1.5780166-1.2883702-3.5293186-2.6874694-5.8736827-4.0045777-1.728814-.9711188-3.373577-1.7305651-4.8650705-2.3276775-.2134237,.3812167-.4260233,.7621243-.6394469,1.143341-.2101275,.7480128-6.5403227,12.7184843-9.031364,20.4448945-1.6925567,5.2520554-1.0341571,10.9591812,1.8038007,15.662742,.3444444,.5799108,.7210259,1.2225509,1.0967834,1.8657059l-1.8029767,8.3253767c-1.2072033,5.7537864,.2669856,11.6803101,3.9199086,16.1641639,.1483253,.1826256,.2488569,.2936635,.6583996,.752545,4.0740022,4.5634757,7.7343415,8.4972899,9.0148834,9.8775394,.3213715,.3452684,2.8223013,3.0836216,7.8241607,8.5604311,3.6726998,4.0206463,5.5078136,6.0321024,5.5968088,6.130471,6.9770583,7.6352519,8.4825603,9.28156,8.8896309,9.7206648,1.6307545,1.7871141,4.4373992,4.1546541,8.5921563,5.4089301,1.7873201,.5489067,3.6529231,.8310338,5.5350066,.8310338h5.7385419c5.3924495,0,10.535218-2.2889481,14.1568279-6.27138l16.0661044-17.7432106c-1.1289205-4.9699283-2.6500791-9.5008549-4.5791323-13.5774321l-20.7844977,22.8857731Z"/>
  </g>
  <g>
    <path class="cls-1" d="M165.8433466,23.2814932c-2.1308594-1.1425781-4.5961914-1.7138672-7.3955078-1.7138672h-18.0029297v44.8984375h8.4609375v-17.4160156h9.5419922c2.7993164,0,5.2646484-.5654297,7.3955078-1.6982422,2.1303711-1.1318359,3.7827148-2.7324219,4.9560547-4.8017578,1.1733398-2.0683594,1.7597656-4.4716797,1.7597656-7.2099609,0-2.7373047-.5864258-5.1464844-1.7597656-7.2255859s-2.8256836-3.6904297-4.9560547-4.8330078Zm-2.7021484,14.9609375c-.4321289,.8447266-1.0341797,1.4980469-1.8061523,1.9609375s-1.6625977,.6943359-2.6713867,.6943359h-9.7578125v-11.1777344h9.7578125c1.0292969,0,1.9301758,.2314453,2.7021484,.6943359,.7719727,.4638672,1.3686523,1.1230469,1.7910156,1.9765625,.4213867,.8544922,.6328125,1.8378906,.6328125,2.9492188,0,1.0908203-.2158203,2.0585938-.6484375,2.9023438Z"/>
    <path class="cls-1" d="M189.8824091,21.567626l-17.168457,44.8984375h9.109375l2.5215454-7.1953125h16.4484863l2.5216675,7.1953125h9.109375l-17.1689453-44.8984375h-5.3730469Zm-2.6809692,29.5517578l5.3674927-15.3164062,5.3677368,15.3164062h-10.7352295Z"/>
    <path class="cls-1" d="M242.4234247,23.4514151c-2.6455078-1.2558594-5.8413086-1.8837891-9.5878906-1.8837891h-14.8530273v44.8984375h14.8217773c3.8496094,0,7.1025391-.6689453,9.7578125-2.0068359,2.6557617-1.3378906,4.6474609-3.2119141,5.9755859-5.6201172,1.3276367-2.4091797,1.9912109-5.2285156,1.9912109-8.4609375v-12.7226562c0-3.3964844-.6894531-6.2988281-2.0683594-8.7080078-1.3798828-2.4082031-3.3920898-4.2402344-6.0371094-5.4960938Zm-.6640625,27.1738281c0,2.4501953-.7617188,4.34375-2.2851562,5.6816406s-3.6743164,2.0068359-6.4536133,2.0068359h-6.5771484V29.7199697h6.5771484c2.7792969,0,4.9301758,.6689453,6.4536133,2.0068359,1.5234375,1.3388672,2.2851562,3.2324219,2.2851562,5.6816406v13.2167969Z"/>
    <polygon class="cls-1" points="261.9234247 21.567626 258.8667841 21.567626 258.8667841 66.4660635 261.9234247 66.4660635 267.3272333 66.4660635 288.9429559 66.4660635 288.9429559 58.3137197 267.3272333 58.3137197 267.3272333 48.2473135 285.5459833 48.2473135 285.5459833 40.0949697 267.3272333 40.0949697 267.3272333 29.7199697 288.9429559 29.7199697 288.9429559 21.567626 267.3272333 21.567626 261.9234247 21.567626"/>
    <polygon class="cls-1" points="305.12362 58.3137197 305.12362 21.567626 296.6626825 21.567626 296.6626825 66.4660635 300.4297724 66.4660635 305.12362 66.4660635 326.7388544 66.4660635 326.7388544 58.3137197 305.12362 58.3137197"/>
    <polygon class="cls-1" points="167.1245966 81.9777822 167.1245966 74.3811026 139.1480341 74.3811026 139.1480341 82.5334463 157.0581903 82.5334463 138.59237 111.6828604 138.59237 119.2795401 167.7422724 119.2795401 167.7422724 111.1271963 148.6587763 111.1271963 167.1245966 81.9777822"/>
    <path class="cls-1" d="M198.2969599,75.9719229c-2.480957-1.3691406-5.347168-2.0537109-8.5996094-2.0537109-3.2529297,0-6.1196289,.6845703-8.6000977,2.0537109s-4.3999023,3.3037109-5.7587891,5.8046875c-1.3583984,2.5009766-2.0380859,5.3994141-2.0380859,8.6923828v12.7226562c0,3.2939453,.6796875,6.1914062,2.0380859,8.6923828,1.3588867,2.5009766,3.2783203,4.4365234,5.7587891,5.8056641s5.347168,2.0527344,8.6000977,2.0527344c3.2524414,0,6.1186523-.6835938,8.5996094-2.0527344,2.4804688-1.3691406,4.4003906-3.3046875,5.7592773-5.8056641,1.3583984-2.5009766,2.0380859-5.3984375,2.0380859-8.6923828v-12.7226562c0-3.2929688-.6796875-6.1914062-2.0380859-8.6923828-1.3588867-2.5009766-3.2788086-4.4355469-5.7592773-5.8046875Zm-.9726562,27.4355469c0,1.5644531-.3139648,2.9443359-.9418945,4.1376953-.6279297,1.1943359-1.5180664,2.1152344-2.6708984,2.7636719-1.1533203,.6484375-2.4912109,.9726562-4.0141602,.9726562-1.5239258,0-2.8618164-.3242188-4.0141602-.9726562-1.1533203-.6484375-2.043457-1.5693359-2.6713867-2.7636719-.6279297-1.1933594-.9418945-2.5732422-.9418945-4.1376953v-13.1542969c0-1.5644531,.3139648-2.9433594,.9418945-4.1376953,.6279297-1.1933594,1.5180664-2.1152344,2.6713867-2.7636719,1.1523438-.6484375,2.4902344-.9726562,4.0141602-.9726562,1.5229492,0,2.8608398,.3242188,4.0141602,.9726562,1.152832,.6484375,2.0429688,1.5703125,2.6708984,2.7636719,.6279297,1.1943359,.9418945,2.5732422,.9418945,4.1376953v13.1542969Z"/>
    <polygon class="cls-1" points="240.7403192 107.2542715 224.7759638 74.3811026 214.4312372 74.3811026 214.4312372 119.2482901 222.5220575 119.2482901 222.5220575 86.8828115 238.4244013 119.2482901 248.8306513 119.2482901 248.8306513 74.3811026 240.7403192 74.3811026 240.7403192 107.2542715"/>
    <polygon class="cls-1" points="261.7691278 74.3811026 258.7119989 74.3811026 258.7119989 119.2795401 261.7691278 119.2795401 267.1729364 119.2795401 288.7881708 119.2795401 288.7881708 111.1271963 267.1729364 111.1271963 267.1729364 101.0607901 285.3916864 101.0607901 285.3916864 92.9084463 267.1729364 92.9084463 267.1729364 82.5334463 288.7881708 82.5334463 288.7881708 74.3811026 267.1729364 74.3811026 261.7691278 74.3811026"/>
  </g>
</svg>